<svg xmlns="http://www.w3.org/2000/svg" viewBox="0 0 16 16" shape-rendering="crispEdges" role="img" aria-label="PIXEL ZOO">
  <rect width="16" height="16" fill="#04060a"/>
  <rect x="0" y="0" width="2" height="2" fill="#ffcf5c"/>
  <rect x="14" y="0" width="2" height="2" fill="#ffcf5c"/>
  <rect x="0" y="2" width="4" height="2" fill="#ffcf5c"/>
  <rect x="12" y="2" width="4" height="2" fill="#ffcf5c"/>
  <rect x="0" y="4" width="16" height="2" fill="#ffcf5c"/>
  <rect x="0" y="6" width="2" height="2" fill="#ffcf5c"/>
  <rect x="2" y="6" width="2" height="2" fill="#04060a"/>
  <rect x="4" y="6" width="8" height="2" fill="#ffcf5c"/>
  <rect x="12" y="6" width="2" height="2" fill="#04060a"/>
  <rect x="14" y="6" width="2" height="2" fill="#ffcf5c"/>
  <rect x="0" y="8" width="16" height="2" fill="#ffcf5c"/>
  <rect x="0" y="10" width="6" height="2" fill="#ffcf5c"/>
  <rect x="6" y="10" width="4" height="2" fill="#04060a"/>
  <rect x="10" y="10" width="6" height="2" fill="#ffcf5c"/>
  <rect x="0" y="12" width="16" height="2" fill="#ffcf5c"/>
  <rect x="2" y="14" width="12" height="2" fill="#ffcf5c"/>
</svg>
